<svg width="25" height="25" viewBox="0 0 25 25" fill="none" xmlns="http://www.w3.org/2000/svg">
<g clip-path="url(#clip0_1077_1633)">
<path d="M0.514833 17.3094L0.487055 17.2687C0.466595 17.2371 0.447441 17.2044 0.429649 17.1708C0.421316 17.1542 0.412982 17.1417 0.405574 17.125L0.383352 17.0729C0.375944 17.0552 0.369463 17.0406 0.363907 17.0239L0.347241 16.9719L0.330575 16.9187L0.318537 16.8667L0.3065 16.8104C0.302796 16.7917 0.300945 16.7708 0.298167 16.751L0.291686 16.701C0.291686 16.6646 0.287055 16.6271 0.287055 16.5906C0.287055 16.5538 0.2886 16.517 0.291686 16.4802C0.291686 16.4635 0.29539 16.4458 0.298167 16.4302C0.300945 16.4146 0.302796 16.3896 0.3065 16.3708L0.318537 16.3146L0.330575 16.2635L0.347241 16.2094C0.352797 16.1906 0.357426 16.175 0.363907 16.1583L0.383352 16.1094C0.389986 16.0916 0.397402 16.0742 0.405574 16.0573L0.429649 16.0114L0.4565 15.9614L0.487982 15.9135C0.499093 15.8979 0.505574 15.8854 0.515759 15.8729C0.536129 15.8458 0.557426 15.8194 0.579648 15.7937L3.1102 12.9479C3.20234 12.8349 3.31385 12.7441 3.43801 12.6809C3.56217 12.6176 3.69642 12.5833 3.83268 12.58C3.96894 12.5767 4.10439 12.6044 4.23087 12.6615C4.35735 12.7186 4.47225 12.8039 4.56866 12.9123C4.66506 13.0207 4.74097 13.1499 4.79182 13.2922C4.84267 13.4344 4.86741 13.5868 4.86454 13.7401C4.86168 13.8934 4.83127 14.0444 4.77515 14.1842C4.71902 14.3239 4.63835 14.4494 4.53798 14.5531L4.53706 14.5542L3.73613 15.4552H6.81761V9.47082C6.81714 9.2076 6.89872 8.95252 7.04817 8.74999L7.04724 8.75207L7.05095 8.74582C7.06941 8.72088 7.08888 8.6969 7.10928 8.67394L7.11761 8.66457L7.14354 8.63436L14.5195 0.336445C14.5399 0.313494 14.5612 0.291596 14.5834 0.27082L14.6046 0.25207L14.6537 0.210403L14.6787 0.190611C14.6963 0.17707 14.7148 0.165611 14.7324 0.154153L14.7546 0.13957C14.7787 0.124986 14.8037 0.111445 14.8296 0.0989446L14.8611 0.0843613L14.9121 0.0624863L14.9482 0.0499863L15.0065 0.0333196L15.0324 0.0260279C15.0611 0.0197779 15.0898 0.0156113 15.1185 0.0114446H23.988C24.2544 0.0111594 24.5101 0.129374 24.6993 0.340312C24.8885 0.55125 24.996 0.837802 24.9982 1.13749V23.8646C24.9982 24.4927 24.5454 25.001 23.988 25.001H7.82687C7.26854 25.001 6.81669 24.4917 6.81669 23.8646V17.7281H3.73428L4.53521 18.6292C4.63563 18.7328 4.71638 18.8583 4.77258 18.9979C4.82878 19.1376 4.85928 19.2887 4.86223 19.4419C4.86519 19.5952 4.84054 19.7476 4.78977 19.8899C4.739 20.0322 4.66317 20.1615 4.56683 20.2699C4.47049 20.3784 4.35563 20.4638 4.22919 20.521C4.10274 20.5782 3.9673 20.606 3.83104 20.6028C3.69478 20.5996 3.56051 20.5654 3.43631 20.5022C3.31211 20.4391 3.20055 20.3483 3.10835 20.2354L3.10743 20.2344L0.581501 17.3989C0.557426 17.3684 0.534896 17.3385 0.513908 17.3094H0.514833ZM14.2259 3.87915L10.2676 8.33228H14.2259V3.87915ZM8.83891 22.726H22.9797V2.27186H16.2454V9.46874C16.2454 10.0969 15.7926 10.6052 15.2352 10.6052H8.83798V15.4542H13.2445C13.5124 15.4542 13.7693 15.5739 13.9588 15.787C14.1482 16.0001 14.2546 16.2892 14.2546 16.5906C14.2546 16.892 14.1482 17.1811 13.9588 17.3942C13.7693 17.6073 13.5124 17.7271 13.2445 17.7271H13.2148H13.2167H8.83984L8.83891 22.726Z" fill="white"/>
</g>
<defs>
<clipPath id="clip0_1077_1633">
<rect width="25" height="25" fill="white"/>
</clipPath>
</defs>
</svg>
