<svg width="35" height="35" viewBox="0 0 35 35" fill="none" xmlns="http://www.w3.org/2000/svg">
<path d="M17.5 3.28125C25.3401 3.28125 31.7188 9.65986 31.7188 17.5C31.7188 25.3401 25.3401 31.7188 17.5 31.7188C9.65986 31.7188 3.28125 25.3401 3.28125 17.5C3.28125 9.65986 9.65986 3.28125 17.5 3.28125ZM9.29688 15.7329C9.29688 15.8892 9.35896 16.0391 9.46947 16.1496C9.57997 16.2601 9.72985 16.3222 9.88613 16.3222H13.9563C14.0728 16.3224 14.1869 16.2879 14.2838 16.2232C14.3808 16.1585 14.4564 16.0665 14.501 15.9587C14.5456 15.851 14.5572 15.7325 14.5343 15.6182C14.5115 15.5038 14.4552 15.3989 14.3726 15.3166L12.857 13.8011L13.2398 13.3561C13.9246 12.6452 14.7748 12.1151 15.7145 11.8131C16.6542 11.5112 17.6541 11.4468 18.6247 11.6257C19.5954 11.8047 20.5066 12.2213 21.2768 12.8385C22.0471 13.4557 22.6524 14.2541 23.0387 15.1624C23.425 16.0707 23.5801 17.0605 23.4903 18.0434C23.4005 19.0263 23.0686 19.9717 22.5241 20.795C21.9797 21.6182 21.2397 22.2937 20.3703 22.7611C19.501 23.2285 18.5294 23.4732 17.5424 23.4732C16.3071 23.4721 15.1025 23.0888 14.0938 22.3758C13.085 21.6629 12.3216 20.6553 11.9082 19.4913C11.8603 19.3558 11.7862 19.231 11.6901 19.1241C11.5939 19.0171 11.4777 18.9302 11.348 18.8682C11.2183 18.8062 11.0776 18.7704 10.9341 18.7628C10.7905 18.7552 10.6468 18.7759 10.5113 18.8238C10.3757 18.8717 10.2509 18.9458 10.144 19.0419C10.0371 19.138 9.95019 19.2543 9.8882 19.384C9.82622 19.5137 9.79039 19.6544 9.78276 19.7979C9.77513 19.9415 9.79586 20.0851 9.84375 20.2207C10.3423 21.6315 11.219 22.8782 12.3782 23.8244C13.5374 24.7706 14.9343 25.3799 16.4164 25.5858C17.8985 25.7917 19.4087 25.5863 20.7819 24.9919C22.155 24.3975 23.3384 23.437 24.2026 22.2155C25.0669 20.994 25.5787 19.5584 25.6821 18.0657C25.7856 16.573 25.4767 15.0805 24.7892 13.7515C24.1018 12.4224 23.0622 11.3079 21.7842 10.5298C20.5061 9.75162 19.0387 9.33978 17.5424 9.33926C16.4381 9.33504 15.3446 9.55697 14.3293 9.99137C13.314 10.4258 12.3984 11.0635 11.6389 11.8651L11.6006 11.9075L11.306 12.2493L10.3024 11.2458C10.249 11.1911 10.1852 11.1476 10.1148 11.1178C10.0444 11.088 9.96875 11.0725 9.89228 11.0722C9.81447 11.0715 9.73731 11.0863 9.66526 11.1157C9.59321 11.1451 9.5277 11.1885 9.47252 11.2433C9.41734 11.2982 9.37358 11.3635 9.34379 11.4353C9.31399 11.5072 9.29874 11.5843 9.29893 11.6621L9.29688 15.7329Z" fill="#371010"/>
</svg>
